HIERARCHY
ROOT Hips
{
	OFFSET 0.000000 89.005402 0.000000
	CHANNELS 6 Xposition Yposition Zposition Xrotation Yrotation Zrotation
	JOINT Spine
	{
		OFFSET 0.116900 10.681000 0.373400
		CHANNELS 3 Xrotation Yrotation Zrotation
		JOINT Spine1
		{
			OFFSET 0.000000 13.840401 0.053500
			CHANNELS 3 Xrotation Yrotation Zrotation
			JOINT Spine2
			{
				OFFSET 0.000000 14.712700 -0.366200
				CHANNELS 3 Xrotation Yrotation Zrotation
				JOINT Neck
				{
					OFFSET 0.000000 35.415497 -3.314200
					CHANNELS 3 Xrotation Yrotation Zrotation
					JOINT Head
					{
						OFFSET 0.000000 16.899200 1.218300
						CHANNELS 3 Xrotation Yrotation Zrotation
						JOINT HeadTop_End
						{
							OFFSET 0.000000 22.206207 2.192500
							CHANNELS 3 Xrotation Yrotation Zrotation
							End Site
							{
								OFFSET 0.000000 22.314178 0.000000
							}
						}
					}
				}
				JOINT LeftShoulder
				{
					OFFSET 12.896400 26.716293 -4.548400
					CHANNELS 3 Xrotation Yrotation Zrotation
					JOINT LeftArm
					{
						OFFSET 19.027000 -4.857010 -1.718400
						CHANNELS 3 Xrotation Yrotation Zrotation
						JOINT LeftForeArm
						{
							OFFSET 24.179897 0.000000 0.000000
							CHANNELS 3 Xrotation Yrotation Zrotation
							JOINT LeftHand
							{
								OFFSET 27.156403 0.000000 0.000000
								CHANNELS 3 Xrotation Yrotation Zrotation
								JOINT LeftHandIndex1
								{
									OFFSET 16.441200 0.000000 0.000000
									CHANNELS 3 Xrotation Yrotation Zrotation
									JOINT LeftHandIndex2
									{
										OFFSET 4.821899 0.000000 0.000000
										CHANNELS 3 Xrotation Yrotation Zrotation
										JOINT LeftHandIndex3
										{
											OFFSET 6.386497 0.000000 0.000000
											CHANNELS 3 Xrotation Yrotation Zrotation
											JOINT LeftHandIndex4
											{
												OFFSET 5.188988 0.000000 0.000000
												CHANNELS 3 Xrotation Yrotation Zrotation
												End Site
												{
													OFFSET -0.178703 5.185913 0.000177
												}
											}
										}
									}
								}
								JOINT LeftHandThumb1
								{
									OFFSET 6.534897 -5.032593 5.900300
									CHANNELS 3 Xrotation Yrotation Zrotation
									JOINT LeftHandThumb2
									{
										OFFSET 3.818176 -2.204422 2.204423
										CHANNELS 3 Xrotation Yrotation Zrotation
										JOINT LeftHandThumb3
										{
											OFFSET 3.252098 -1.877594 1.877601
											CHANNELS 3 Xrotation Yrotation Zrotation
											JOINT LeftHandThumb4
											{
												OFFSET 5.251778 -3.032120 3.032117
												CHANNELS 3 Xrotation Yrotation Zrotation
												End Site
												{
													OFFSET 0.000023 6.780014 0.000000
												}
											}
										}
									}
								}
							}
						}
					}
				}
				JOINT RightShoulder
				{
					OFFSET -12.896300 26.716293 -4.548400
					CHANNELS 3 Xrotation Yrotation Zrotation
					JOINT RightArm
					{
						OFFSET -19.027000 -4.857010 -1.718400
						CHANNELS 3 Xrotation Yrotation Zrotation
						JOINT RightForeArm
						{
							OFFSET -24.179897 0.000000 0.000000
							CHANNELS 3 Xrotation Yrotation Zrotation
							JOINT RightHand
							{
								OFFSET -27.156403 0.000000 0.000000
								CHANNELS 3 Xrotation Yrotation Zrotation
								JOINT RightHandThumb1
								{
									OFFSET -6.591202 -4.852203 5.988100
									CHANNELS 3 Xrotation Yrotation Zrotation
									JOINT RightHandThumb2
									{
										OFFSET -3.818176 -2.204422 2.204423
										CHANNELS 3 Xrotation Yrotation Zrotation
										JOINT RightHandThumb3
										{
											OFFSET -3.252098 -1.877594 1.877601
											CHANNELS 3 Xrotation Yrotation Zrotation
											JOINT RightHandThumb4
											{
												OFFSET -5.251778 -3.032120 3.032117
												CHANNELS 3 Xrotation Yrotation Zrotation
												End Site
												{
													OFFSET -0.000023 6.780014 0.000000
												}
											}
										}
									}
								}
								JOINT RightHandIndex1
								{
									OFFSET -16.029404 0.000000 0.000000
									CHANNELS 3 Xrotation Yrotation Zrotation
									JOINT RightHandIndex2
									{
										OFFSET -5.213303 0.000000 0.000000
										CHANNELS 3 Xrotation Yrotation Zrotation
										JOINT RightHandIndex3
										{
											OFFSET -6.386528 0.000000 0.000000
											CHANNELS 3 Xrotation Yrotation Zrotation
											JOINT RightHandIndex4
											{
												OFFSET -5.189026 0.000000 0.000000
												CHANNELS 3 Xrotation Yrotation Zrotation
												End Site
												{
													OFFSET 0.236702 5.183624 0.001972
												}
											}
										}
									}
								}
							}
						}
					}
				}
			}
		}
	}
	JOINT LeftUpLeg
	{
		OFFSET 14.073000 -7.904099 -1.463000
		CHANNELS 3 Xrotation Yrotation Zrotation
		JOINT LeftLeg
		{
			OFFSET -0.109806 -34.073280 4.093200
			CHANNELS 3 Xrotation Yrotation Zrotation
			JOINT LeftFoot
			{
				OFFSET 0.109806 -29.899420 -6.319000
				CHANNELS 3 Xrotation Yrotation Zrotation
				JOINT LeftToeBase
				{
					OFFSET 1.551100 -14.988700 20.535801
					CHANNELS 3 Xrotation Yrotation Zrotation
					JOINT LeftToe_End
					{
						OFFSET 0.221200 0.570800 13.248301
						CHANNELS 3 Xrotation Yrotation Zrotation
						End Site
						{
							OFFSET 0.000000 13.262435 0.000000
						}
					}
				}
			}
		}
	}
	JOINT RightUpLeg
	{
		OFFSET -13.839300 -7.904099 -1.463000
		CHANNELS 3 Xrotation Yrotation Zrotation
		JOINT RightLeg
		{
			OFFSET 0.109694 -34.073219 4.093300
			CHANNELS 3 Xrotation Yrotation Zrotation
			JOINT RightFoot
			{
				OFFSET -0.109694 -29.899384 -6.319200
				CHANNELS 3 Xrotation Yrotation Zrotation
				JOINT RightToeBase
				{
					OFFSET -1.551100 -14.988700 20.535801
					CHANNELS 3 Xrotation Yrotation Zrotation
					JOINT RightToe_End
					{
						OFFSET -0.221200 0.570900 13.248299
						CHANNELS 3 Xrotation Yrotation Zrotation
						End Site
						{
							OFFSET 0.000000 13.262440 0.000000
						}
					}
				}
			}
		}
	}
}
MOTION
Frames: 9
Frame Time: 0.033333
0.093207 50.685089 9.218557 0.145858 0.071187 0.868754 10.430297 0.122083 -1.495051 -0.199272 0.213243 -0.354492 -0.199586 0.247658 -0.297846 -1.002167 -1.272937 0.467094 -8.883902 -4.315450 -5.322343 -0.000000 -0.000000 -0.000000 0.823514 -15.262022 -7.868796 4.725793 -21.228406 -54.866080 0.000046 -62.172582 0.000049 31.075223 4.294461 41.753787 -0.235304 2.798400 -26.913109 0.396828 2.121255 -21.189113 0.083123 0.984426 -9.652958 0.000001 -0.000001 0.000000 6.610625 1.798233 20.801500 2.716378 20.172578 -24.389159 -5.537242 29.849532 5.070890 0.000002 0.000001 -0.000001 3.166389 -4.379449 8.782927 -3.950202 37.253406 63.733670 0.000009 55.137962 -0.000006 43.537255 4.741043 -36.277973 -9.383516 -1.613373 -17.604722 3.557064 -24.337014 34.656848 -6.608458 -37.497336 -11.176186 0.000002 0.000001 -0.000001 2.957827 1.012852 13.529999 0.472467 -2.045692 26.006727 0.059741 -0.744398 9.177812 0.000000 -0.000003 0.000005 -88.309701 -8.304602 14.588562 82.352451 2.948360 -0.535915 7.630302 -6.783235 -8.242321 -0.103115 -0.000006 -0.000004 -0.000000 -0.000001 0.000000 -89.572883 9.722388 -10.617906 82.899529 -2.605438 -1.084055 8.618660 -0.165120 9.305924 -0.191621 -0.000003 -0.000000 -0.000000 -0.000001 0.000000 
0.122876 50.688148 9.130568 0.092891 0.065428 0.883262 10.408067 0.131740 -1.495926 -0.245479 0.218249 -0.364416 -0.245807 0.254468 -0.307646 -0.989898 -1.272120 0.433583 -8.788519 -4.359252 -5.285981 -0.000000 -0.000000 -0.000000 0.821035 -15.267100 -7.965600 4.608943 -21.101565 -55.030848 0.000044 -61.966003 0.000040 31.335562 4.111380 41.735997 -0.265264 2.790907 -26.959672 0.396873 2.121389 -21.190437 0.083143 0.984568 -9.654273 0.000000 0.000002 0.000001 6.572443 1.888653 20.883928 2.756356 20.135411 -24.246480 -5.537242 29.849532 5.070890 -0.000000 0.000000 0.000000 3.152230 -4.507332 8.392379 -3.915263 37.302819 63.950023 0.000034 55.536835 -0.000036 42.399881 4.342954 -35.974630 -7.853255 1.162017 -14.707743 3.953906 -25.022103 32.965686 -6.288613 -33.368828 -10.422533 -0.000001 0.000002 -0.000001 2.970409 0.735416 14.685007 0.465289 -2.030939 25.805237 0.069935 -0.804949 9.931704 -0.000001 -0.000003 0.000001 -88.273624 -8.250913 14.542347 82.232732 2.973256 -0.536184 7.759395 -6.764443 -8.203283 -0.167754 0.000001 -0.000000 0.000000 0.000000 0.000000 -89.522982 9.707803 -10.679004 82.739819 -2.566322 -1.087628 8.776122 -0.151451 9.302896 -0.139093 -0.000003 0.000001 -0.000000 0.000001 -0.000000 
0.149878 50.706841 9.042205 0.042177 0.047502 0.924526 10.381580 0.144717 -1.494809 -0.302619 0.236579 -0.380398 -0.302971 0.273510 -0.323451 -0.955399 -1.270455 0.391346 -8.675745 -4.427236 -5.230543 0.000000 -0.000000 0.000000 0.811876 -15.247673 -8.039425 4.494557 -21.073881 -55.196794 -0.000001 -61.636775 0.000005 31.537497 3.881500 41.770633 -0.253115 2.804972 -27.029645 0.397384 2.122697 -21.204034 0.083382 0.985934 -9.667865 0.000001 0.000001 -0.000002 6.520060 1.966021 20.958143 2.766066 20.106002 -24.073307 -5.537241 29.849532 5.070889 0.000000 0.000000 0.000002 3.125637 -4.725550 7.741353 -3.795064 37.226454 64.044512 -0.000017 57.023419 0.000020 38.660192 4.398773 -33.445302 -4.326222 4.071669 -11.249768 3.855611 -25.490324 29.576966 -4.945813 -28.408126 -7.572994 0.000001 0.000001 -0.000001 3.092879 0.465785 15.525744 0.453170 -2.005695 25.460731 0.078746 -0.853710 10.540097 0.000001 0.000001 0.000003 -88.182790 -8.177563 14.521003 82.067134 3.024678 -0.535908 7.882434 -6.779223 -8.214660 -0.195658 0.000001 0.000000 0.000000 0.000001 0.000000 -89.471312 9.719751 -10.706660 82.560274 -2.537956 -1.094163 8.946121 -0.139015 9.279691 -0.162598 0.000006 -0.000000 -0.000000 0.000000 0.000000 
0.174470 50.734802 8.956428 -0.043253 0.048401 0.960917 10.348222 0.154869 -1.495074 -0.373562 0.250654 -0.396363 -0.373933 0.287960 -0.339225 -0.875149 -1.273702 0.341931 -8.524372 -4.542772 -5.121579 -0.000000 0.000000 0.000000 0.810523 -15.177917 -8.032511 4.361518 -21.243596 -55.399524 -0.000003 -61.118431 -0.000016 31.624292 3.623481 41.878817 -0.238287 2.819404 -27.086901 0.397870 2.123988 -21.217629 0.083618 0.987298 -9.681447 -0.000000 -0.000002 -0.000003 6.585698 2.024055 20.962557 2.641369 20.113766 -23.759988 -5.537242 29.849532 5.070892 -0.000000 0.000003 0.000002 3.063521 -5.006500 6.889869 -3.605950 36.902081 63.757678 0.000007 59.462186 0.000000 32.121703 4.673741 -28.188546 1.211291 6.574466 -7.837036 3.028515 -25.276502 23.918672 -4.031072 -23.642556 -4.275906 -0.000001 -0.000001 -0.000004 3.248099 0.180682 16.807724 0.458199 -2.016240 25.604233 0.096542 -0.944358 11.674174 -0.000001 -0.000002 0.000002 -88.062251 -8.090964 14.473099 81.907458 3.104468 -0.528114 8.000297 -6.798357 -8.186767 -0.222646 -0.000002 -0.000001 0.000000 0.000000 0.000000 -89.361031 9.736949 -10.742421 82.382293 -2.495313 -1.106183 9.099166 -0.121590 9.292620 -0.180589 -0.000002 -0.000001 0.000000 -0.000001 -0.000000 
0.208457 50.766670 8.869906 -0.166567 0.086439 0.970071 10.292965 0.153877 -1.506483 -0.482709 0.245038 -0.424053 -0.483115 0.282768 -0.366761 -0.690643 -1.288789 0.317001 -8.333206 -4.707352 -4.911373 -0.000000 -0.000000 -0.000000 0.820946 -15.136087 -7.944647 4.300949 -21.508703 -55.599468 0.000004 -60.512088 0.000005 31.578072 3.415470 42.024187 -0.245161 2.817673 -27.072643 0.397843 2.123892 -21.216690 0.083595 0.987225 -9.680517 -0.000002 -0.000002 -0.000001 6.753591 2.130347 20.961716 2.392238 20.155089 -23.317800 -5.537242 29.849532 5.070890 0.000001 -0.000001 -0.000003 2.946607 -5.292858 5.907319 -3.402452 36.276361 62.816082 -0.000049 62.010003 0.000065 24.936956 3.931011 -21.406351 7.952551 8.436773 -4.916708 2.254188 -23.909081 16.871665 -4.892622 -20.656213 -2.309867 -0.000000 0.000001 0.000001 3.396191 -0.122118 18.850014 0.505755 -2.112538 26.924426 0.141282 -1.139620 14.134082 0.000001 -0.000002 -0.000001 -87.917813 -8.011925 14.394562 81.740268 3.159790 -0.509310 8.126149 -6.815127 -8.161056 -0.245969 -0.000006 -0.000000 0.000000 -0.000000 -0.000000 -89.195775 9.751056 -10.797768 82.222480 -2.493302 -1.118859 9.238271 -0.107908 9.303723 -0.184827 -0.000004 0.000001 0.000000 0.000001 0.000000 
0.253901 50.797684 8.783201 -0.302839 0.153442 0.945551 10.202046 0.131054 -1.538916 -0.652050 0.204951 -0.488680 -0.652513 0.243333 -0.431408 -0.353502 -1.317894 0.362990 -8.174885 -4.879690 -4.594363 -0.000000 -0.000000 0.000000 0.835040 -15.231242 -7.849726 4.455842 -21.609325 -55.689551 -0.000015 -60.050327 -0.000019 31.445966 3.360873 42.121326 -0.258906 2.803828 -26.966996 0.397343 2.122607 -21.203200 0.083361 0.985844 -9.667048 -0.000000 -0.000003 0.000000 6.946877 2.274736 20.988832 2.155414 20.191883 -22.891082 -5.537241 29.849532 5.070891 -0.000001 -0.000001 -0.000001 2.800140 -5.483610 4.924102 -3.225108 35.372822 60.896034 -0.000054 63.872316 0.000066 20.314745 1.910001 -14.908309 14.296021 9.392026 -2.634136 2.287508 -21.724883 10.154972 -7.096938 -20.434391 -2.792440 0.000002 0.000003 -0.000001 3.547137 -0.434654 21.540209 0.621441 -2.326163 29.911174 0.245763 -1.494355 18.677309 0.000000 -0.000000 -0.000000 -87.796399 -7.941782 14.286062 81.584178 3.198783 -0.485770 8.265445 -6.824048 -8.090743 -0.263271 -0.000003 -0.000002 -0.000000 -0.000000 -0.000000 -88.992235 9.756503 -10.851337 82.076573 -2.505631 -1.134956 9.321571 -0.098451 9.305883 -0.195972 -0.000001 -0.000002 -0.000000 -0.000001 0.000000 
0.307436 50.827911 8.694380 -0.446356 0.212178 0.888490 10.087075 0.080092 -1.594380 -0.857993 0.122956 -0.600972 -0.858479 0.162177 -0.544119 0.088471 -1.349338 0.483551 -8.229155 -4.990086 -4.236337 -0.000000 0.000000 -0.000000 0.840508 -15.440432 -7.834280 4.816335 -21.355882 -55.638455 0.000007 -59.882905 0.000015 31.361189 3.492296 42.075345 -0.242373 2.802123 -26.854366 0.396818 2.121243 -21.188785 0.083117 0.984393 -9.652652 0.000000 -0.000000 -0.000002 7.221322 2.297907 20.898839 2.053769 20.191784 -22.607236 -5.537241 29.849532 5.070890 0.000001 -0.000004 -0.000001 2.700549 -5.418073 4.238585 -3.092887 34.203695 57.584136 -0.000032 65.322638 0.000032 19.116154 -0.413351 -8.882829 17.987011 8.870473 -0.909585 3.826848 -19.169848 5.531840 -8.395797 -22.643013 -4.995455 -0.000002 0.000001 -0.000002 3.728801 -0.752860 25.065688 0.826348 -2.650376 34.627888 0.458847 -2.017592 25.622888 -0.000000 -0.000002 0.000001 -87.684780 -7.890884 14.198654 81.445163 3.273644 -0.465400 8.408934 -6.855133 -7.998212 -0.295517 -0.000001 0.000002 0.000000 -0.000001 -0.000000 -88.775158 9.754135 -10.863433 81.913462 -2.520611 -1.156471 9.422157 -0.094722 9.323115 -0.221201 -0.000002 -0.000002 -0.000000 0.000001 0.000000 
0.364064 50.854088 8.601725 -0.623041 0.229719 0.789215 9.979057 0.007106 -1.657728 -1.045159 -0.003239 -0.741341 -1.045582 0.036857 -0.685390 0.504369 -1.353581 0.614447 -8.720786 -4.953743 -3.924815 -0.000000 0.000000 -0.000000 0.830039 -15.709671 -7.941766 5.247338 -20.647303 -55.526392 -0.000012 -60.034159 0.000009 31.469714 3.762867 41.864613 -0.184111 2.825748 -26.817047 0.396219 2.119708 -21.172762 0.082840 0.982786 -9.636626 -0.000000 0.000001 -0.000000 7.664640 2.110819 20.585179 2.158746 20.136810 -22.537633 -5.537240 29.849532 5.070891 -0.000000 0.000001 -0.000001 2.689990 -4.915595 4.296688 -3.254515 32.578086 52.741870 0.000035 67.671178 -0.000033 19.330976 -2.271797 -2.884377 17.054677 6.398091 0.228754 7.056009 -16.270054 4.006301 -5.519682 -26.427513 -6.473500 0.000000 -0.000000 -0.000000 3.952681 -1.042577 29.857250 1.108012 -3.017357 40.320673 0.792957 -2.601408 33.899233 0.000000 0.000000 -0.000002 -87.559207 -7.874294 14.172647 81.342219 3.334604 -0.446946 8.535229 -6.932194 -7.892485 -0.334542 -0.000001 -0.000004 -0.000000 -0.000000 0.000000 -88.525331 9.730520 -10.806842 81.727031 -2.577236 -1.189666 9.555098 -0.092432 9.362619 -0.248568 0.000001 -0.000000 -0.000000 0.000001 0.000000 
0.417651 50.875832 8.501255 -0.830599 0.197583 0.641288 9.882629 -0.084669 -1.708171 -1.202291 -0.178733 -0.878361 -1.202564 -0.137803 -0.823703 0.803996 -1.304684 0.695422 -9.732883 -4.667544 -3.795386 -0.000000 0.000000 0.000000 0.802263 -16.160586 -8.198057 5.742098 -19.325773 -55.394501 0.000002 -60.534983 -0.000007 31.788800 4.133365 41.590104 -0.121415 2.851217 -26.782736 0.395240 2.117210 -21.146544 0.082398 0.980134 -9.610410 -0.000000 0.000000 -0.000002 8.181644 1.846456 20.195713 2.526415 20.010767 -22.742812 -5.537242 29.849528 5.070889 0.000001 -0.000002 0.000002 2.684995 -3.937643 5.250463 -4.661716 30.032321 47.263184 0.000017 72.292259 -0.000017 17.901012 -3.616664 2.379881 11.107581 2.599677 0.603392 11.105651 -12.827640 5.195796 3.000002 -31.013198 -5.219892 0.000001 -0.000001 -0.000000 4.174712 -1.230092 36.169045 1.418895 -3.348863 45.915011 1.162286 -3.080079 41.341089 0.000002 0.000000 -0.000001 -87.440929 -7.894510 14.210773 81.289414 3.402124 -0.424169 8.653529 -7.041960 -7.721729 -0.300863 -0.000000 0.000001 -0.000000 0.000000 -0.000000 -88.228975 9.668158 -10.676512 81.501464 -2.662872 -1.238273 9.705986 -0.083864 9.462793 -0.259617 -0.000005 0.000001 -0.000000 0.000000 0.000000 
